<svg xmlns="http://www.w3.org/2000/svg" style="display:none">
  <!-- stroke icons: viewBox 0 0 24 24, stroke=currentColor, 1.5 -->
  <symbol id="icon-building" viewBox="0 0 24 24" fill="none" stroke="currentColor" stroke-width="1.5" stroke-linecap="round" stroke-linejoin="round">
    <path d="M4 21V5a2 2 0 0 1 2-2h7a2 2 0 0 1 2 2v16"/><path d="M15 9h3a2 2 0 0 1 2 2v10"/>
    <path d="M3 21h18"/><path d="M8 7h3M8 11h3M8 15h3"/>
  </symbol>
  <symbol id="icon-briefcase" viewBox="0 0 24 24" fill="none" stroke="currentColor" stroke-width="1.5" stroke-linecap="round" stroke-linejoin="round">
    <rect x="3" y="7" width="18" height="13" rx="2"/><path d="M9 7V5a2 2 0 0 1 2-2h2a2 2 0 0 1 2 2v2"/><path d="M3 13h18"/>
  </symbol>
  <symbol id="icon-handshake" viewBox="0 0 24 24" fill="none" stroke="currentColor" stroke-width="1.5" stroke-linecap="round" stroke-linejoin="round">
    <path d="m11 17 2 2a1 1 0 0 0 1.5-.1l3.7-4.2a2 2 0 0 0-.1-2.7L14 8"/>
    <path d="m6 12 3-3 4 4M3 10l4-4 4 1 3 3"/><path d="M18 11 21 8M3 14l3 3"/>
  </symbol>
  <symbol id="icon-megaphone" viewBox="0 0 24 24" fill="none" stroke="currentColor" stroke-width="1.5" stroke-linecap="round" stroke-linejoin="round">
    <path d="M3 11v2a1 1 0 0 0 1 1h2l9 5V5L6 10H4a1 1 0 0 0-1 1Z"/><path d="M18 8a4 4 0 0 1 0 8"/><path d="M7 14v4a1 1 0 0 0 1 1h1"/>
  </symbol>
  <symbol id="icon-bus" viewBox="0 0 24 24" fill="none" stroke="currentColor" stroke-width="1.5" stroke-linecap="round" stroke-linejoin="round">
    <path d="M5 17V6a2 2 0 0 1 2-2h10a2 2 0 0 1 2 2v11"/><path d="M4 17h16v2a1 1 0 0 1-1 1h-1a1 1 0 0 1-1-1M8 20a1 1 0 0 1-1 1H6a1 1 0 0 1-1-1v-2"/>
    <path d="M5 9h14"/><path d="M5 13h14"/><circle cx="8" cy="13" r="0.6" fill="currentColor"/><circle cx="16" cy="13" r="0.6" fill="currentColor"/>
  </symbol>
  <symbol id="icon-utensils" viewBox="0 0 24 24" fill="none" stroke="currentColor" stroke-width="1.5" stroke-linecap="round" stroke-linejoin="round">
    <path d="M5 3v7a2 2 0 0 0 4 0V3M7 10v11"/><path d="M16 3c-1.5 0-3 1.5-3 4s1.5 3.5 3 3.5V21"/>
  </symbol>
  <symbol id="icon-flame" viewBox="0 0 24 24" fill="none" stroke="currentColor" stroke-width="1.5" stroke-linecap="round" stroke-linejoin="round">
    <path d="M12 2c1.5 3 4.5 4.5 4.5 8.5A4.5 4.5 0 0 1 12 15a4.5 4.5 0 0 1-4.5-4.5C7.5 6.5 10.5 5 12 2Z"/>
    <path d="M9.5 17.5c0 1.6 1.1 3 2.5 3s2.5-1.4 2.5-3c0-1.2-.9-2.1-1.5-2.8-.4.6-.6 1-.6 1.6 0 .5-.4.9-.9.4-.5-.6-1.2-1.1-1.4-.2-.1.4-.6.8-.6 1.4Z"/>
  </symbol>
  <symbol id="icon-shield" viewBox="0 0 24 24" fill="none" stroke="currentColor" stroke-width="1.5" stroke-linecap="round" stroke-linejoin="round">
    <path d="M12 3 5 6v5c0 4.2 2.9 7.6 7 9 4.1-1.4 7-4.8 7-9V6Z"/><path d="m9 12 2 2 4-4"/>
  </symbol>
  <symbol id="icon-snowflake" viewBox="0 0 24 24" fill="none" stroke="currentColor" stroke-width="1.5" stroke-linecap="round" stroke-linejoin="round">
    <path d="M12 2v20M2 12h20M4.5 4.5 19.5 19.5M19.5 4.5 4.5 19.5"/>
  </symbol>
  <symbol id="icon-signal" viewBox="0 0 24 24" fill="none" stroke="currentColor" stroke-width="1.5" stroke-linecap="round" stroke-linejoin="round">
    <path d="M5 18a9 9 0 0 1 14 0M8 15a5 5 0 0 1 8 0"/><circle cx="12" cy="19" r="1.4"/>
  </symbol>
  <symbol id="icon-store" viewBox="0 0 24 24" fill="none" stroke="currentColor" stroke-width="1.5" stroke-linecap="round" stroke-linejoin="round">
    <path d="M3 9 4.2 4h15.6L21 9"/><path d="M4 9v11h16V9"/><path d="M9 20v-6h6v6"/>
    <path d="M3 9a2.5 2.5 0 0 0 5 0 2.5 2.5 0 0 0 4 0 2.5 2.5 0 0 0 4 0 2.5 2.5 0 0 0 5 0"/>
  </symbol>
  <symbol id="icon-globe" viewBox="0 0 24 24" fill="none" stroke="currentColor" stroke-width="1.5" stroke-linecap="round" stroke-linejoin="round">
    <circle cx="12" cy="12" r="9"/><path d="M3 12h18"/>
    <path d="M12 3a14 14 0 0 1 0 18 14 14 0 0 1 0-18Z"/>
  </symbol>
  <symbol id="icon-users" viewBox="0 0 24 24" fill="none" stroke="currentColor" stroke-width="1.5" stroke-linecap="round" stroke-linejoin="round">
    <circle cx="9" cy="8" r="3.2"/><path d="M3 20a6 6 0 0 1 12 0"/><path d="M16 5.2a3.2 3.2 0 0 1 0 6M17 14.5a6 6 0 0 1 4 5.5"/>
  </symbol>
  <symbol id="icon-trophy" viewBox="0 0 24 24" fill="none" stroke="currentColor" stroke-width="1.5" stroke-linecap="round" stroke-linejoin="round">
    <path d="M7 4h10v5a5 5 0 0 1-10 0z"/><path d="M7 5H4v2a3 3 0 0 0 3 3M17 5h3v2a3 3 0 0 1-3 3"/>
    <path d="M10 16h4M9 20h6M12 14v2"/>
  </symbol>
  <symbol id="icon-award" viewBox="0 0 24 24" fill="none" stroke="currentColor" stroke-width="1.5" stroke-linecap="round" stroke-linejoin="round">
    <circle cx="12" cy="9" r="6"/><path d="M9 14.5 7 22l5-3 5 3-2-7.5"/>
  </symbol>
  <symbol id="icon-calendar" viewBox="0 0 24 24" fill="none" stroke="currentColor" stroke-width="1.5" stroke-linecap="round" stroke-linejoin="round">
    <rect x="3" y="5" width="18" height="16" rx="2"/><path d="M3 9h18M8 3v4M16 3v4"/>
  </symbol>
  <symbol id="icon-layers" viewBox="0 0 24 24" fill="none" stroke="currentColor" stroke-width="1.5" stroke-linecap="round" stroke-linejoin="round">
    <path d="m12 3 9 5-9 5-9-5 9-5Z"/><path d="m3 12 9 5 9-5M3 16l9 5 9-5"/>
  </symbol>
  <symbol id="icon-pin" viewBox="0 0 24 24" fill="none" stroke="currentColor" stroke-width="1.5" stroke-linecap="round" stroke-linejoin="round">
    <path d="M12 21s7-6.2 7-11a7 7 0 0 0-14 0c0 4.8 7 11 7 11Z"/><circle cx="12" cy="10" r="2.5"/>
  </symbol>
  <symbol id="icon-arrow-right" viewBox="0 0 24 24" fill="none" stroke="currentColor" stroke-width="1.5" stroke-linecap="round" stroke-linejoin="round">
    <path d="M5 12h14M13 6l6 6-6 6"/>
  </symbol>
  <symbol id="icon-check" viewBox="0 0 24 24" fill="none" stroke="currentColor" stroke-width="1.5" stroke-linecap="round" stroke-linejoin="round">
    <path d="M20 6 9 17l-5-5"/>
  </symbol>
  <symbol id="icon-mail" viewBox="0 0 24 24" fill="none" stroke="currentColor" stroke-width="1.5" stroke-linecap="round" stroke-linejoin="round">
    <rect x="3" y="5" width="18" height="14" rx="2"/><path d="m4 7 8 6 8-6"/>
  </symbol>
  <symbol id="icon-phone" viewBox="0 0 24 24" fill="none" stroke="currentColor" stroke-width="1.5" stroke-linecap="round" stroke-linejoin="round">
    <path d="M5 4h4l2 5-2.5 1.5a11 11 0 0 0 5 5L15 13l5 2v4a1 1 0 0 1-1 1A16 16 0 0 1 4 5a1 1 0 0 1 1-1Z"/>
  </symbol>
  <symbol id="icon-external" viewBox="0 0 24 24" fill="none" stroke="currentColor" stroke-width="1.5" stroke-linecap="round" stroke-linejoin="round">
    <path d="M14 4h6v6"/><path d="M20 4 10 14"/><path d="M19 14v5a1 1 0 0 1-1 1H5a1 1 0 0 1-1-1V6a1 1 0 0 1 1-1h5"/>
  </symbol>
  <symbol id="icon-arrow-trend" viewBox="0 0 24 24" fill="none" stroke="currentColor" stroke-width="1.5" stroke-linecap="round" stroke-linejoin="round">
    <path d="M3 17 9 11l4 4 8-8"/><path d="M16 7h5v5"/>
  </symbol>
  <symbol id="icon-quote" viewBox="0 0 24 24" fill="currentColor" stroke="none">
    <path d="M9 7c-2.8 0-5 2.2-5 5v5h5v-5H6.5C6.5 10.6 7.6 9.5 9 9.5zM20 7c-2.8 0-5 2.2-5 5v5h5v-5h-2.5c0-1.4 1.1-2.5 2.5-2.5z"/>
  </symbol>
  <symbol id="icon-download" viewBox="0 0 24 24" fill="none" stroke="currentColor" stroke-width="1.5" stroke-linecap="round" stroke-linejoin="round">
    <path d="M12 3v12"/><path d="m7 10 5 5 5-5"/><path d="M5 19h14"/>
  </symbol>
</svg>
